<?xml version="1.0" encoding="UTF-8"?>
<!DOCTYPE svg PUBLIC "-//W3C//DTD SVG 1.1//EN" "http://www.w3.org/Graphics/SVG/1.1/DTD/svg11.dtd">
<!-- Creator: CorelDRAW 2019 (64 Bit) -->
<svg xmlns="http://www.w3.org/2000/svg" xml:space="preserve" width="210mm" height="297mm" version="1.1" style="shape-rendering:geometricPrecision; text-rendering:geometricPrecision; image-rendering:optimizeQuality; fill-rule:evenodd; clip-rule:evenodd"
viewBox="0 0 21000 29700"
 xmlns:xlink="http://www.w3.org/1999/xlink">
 <defs>
  <style type="text/css">
   <![CDATA[
    .str0 {stroke:#373435;stroke-width:20;stroke-miterlimit:22.9256}
    .fil2 {fill:none}
    .fil0 {fill:#373435}
    .fil1 {fill:#ED3237}
   ]]>
  </style>
 </defs>
 <g id="Camada_x0020_1">
  <metadata id="CorelCorpID_0Corel-Layer"/>
  <polygon class="fil0 str0" points="5832.76,13581.16 7982.5,13581.16 7975.89,14388.14 5812.91,16551.11 "/>
  <path class="fil0 str0" d="M5548.74 18771c-877.69,-832.93 -1567.56,-1759.97 -2004.22,-2804.6 -811.26,-1861.11 -470.63,-4006.12 -126.93,-4991.05 1106.23,-3000.82 3463.45,-4319.04 4921.26,-4709.58 2436.33,-645.69 4929.77,-169.93 6673.25,1417.16 1668.93,1402.68 2739.41,3672.71 2586.3,5807.61 -60.34,1133.09 -310.28,2133.43 -723.38,3019.55 -704.44,1271.41 -1628.33,2210.05 -2738.44,2969.95 -912.96,543.42 -1924.7,911.78 -2890.57,1031.87l906.59 -1292.35c1790.49,-518.66 2682.2,-1705.75 3585.11,-2969.95 636.86,-1384.26 857.75,-2599.66 753.67,-3701.66 -158.59,-1065 -493.93,-2074.76 -1217.08,-2963.34 -418.42,-630.82 -1014.72,-1172.73 -1785.94,-1627.19 -867.95,-557.77 -1767.63,-898.46 -3001.65,-902.78 -635.37,-0.15 -1207.65,12.67 -2587.68,479.45 -1301.49,474.8 -2218.58,1349.7 -2986.48,2662.36 -585.72,1047.93 -714.8,1848.5 -803.68,2602.85 -43.47,696.4 9.22,1331.58 159.76,1904.5 241.07,963.76 605.44,1845.31 1270,2526.77l2638.23 -2671.8 2715.32 4051.43 3724.04 -5400.83 -701.14 -578.78 2424.25 -750.76 -165.34 2559.85 -687.92 -519.25 -4603.78 6584.87 -2840.99 -4230.03 -2492.56 2495.73z"/>
  <polygon class="fil1 str0" points="6020.52,13796.47 7789.92,13796.47 7803.15,14312.4 6033.75,16095.07 "/>
  <polygon class="fil2 str0" points="5841.93,13601.37 7991.67,13601.37 7985.06,14408.35 5822.08,16571.32 "/>
  <polygon class="fil2 str0" points="8703.01,10326.95 10872.61,10325.3 10877.58,18161.94 8734.45,14947.25 "/>
  <polygon class="fil0 str0" points="8728.03,10354.97 10897.63,10353.32 10902.6,18189.96 8759.47,14975.27 "/>
  <polygon class="fil0 str0" points="11699.31,8418.87 13855.66,8418.87 13865.61,13879.22 11702.64,17007.93 "/>
  <polygon class="fil1 str0" points="11907.69,8620.62 13668.84,8599.12 13673.8,13806.48 11897.76,16377.91 "/>
  <polygon class="fil1 str0" points="10692.92,17524.5 8920.21,14825.75 8920.25,10526.29 10686.35,10526.29 "/>
 </g>
</svg>
